Coordinates
version=1
nRows=15
nColumns=34
inDegrees=yes

Units are S.I. units (second, meters, Newtons, ...)
If the header above contains a line with 'inDegrees', this indicates whether rotational values are in degrees (yes) or radians (no).

endheader
time	pelvis_tilt	pelvis_list	pelvis_rotation	pelvis_tx	pelvis_ty	pelvis_tz	hip_flexion_r	hip_adduction_r	hip_rotation_r	knee_angle_r	ankle_angle_r	subtalar_angle_r	mtp_angle_r	hip_flexion_l	hip_adduction_l	hip_rotation_l	knee_angle_l	ankle_angle_l	subtalar_angle_l	mtp_angle_l	lumbar_extension	lumbar_bending	lumbar_rotation	arm_flex_r	arm_add_r	arm_rot_r	elbow_flex_r	pro_sup_r	arm_flex_l	arm_add_l	arm_rot_l	elbow_flex_l	pro_sup_l
      1.11666670	     28.67047573	     -4.21592017	     -9.66414777	      0.80036455	      1.05887217	     -0.41422406	    -29.10839336	      0.10159745	    -10.53341998	      0.00000000	    -17.39413515	    -35.00000000	      0.00000000	    -30.00000025	      3.87620561	     14.06608731	      0.00000000	    -16.86976961	    -35.00000000	      0.00000000	    -56.18378794	     -2.71391644	      2.40378427	     15.40883225	     -5.70317168	     39.25390201	     14.71855833	     62.20032988	     18.40436075	     -6.73608310	     49.97539398	     13.92793385	     57.33727350
      1.13333330	     28.69628069	     -3.98930701	     -9.48487300	      0.79906092	      1.05985153	     -0.41557060	    -29.16733180	     -0.07583622	    -10.63386132	      0.00000000	    -17.59188986	    -35.00000000	      0.00000000	    -30.00000025	      4.04949429	     14.28820936	      0.00000000	    -17.46648261	    -35.00000000	      0.00000000	    -55.86617668	     -2.87138893	      2.59398948	     15.19207252	     -5.82775748	     39.34185857	     14.56717082	     62.25799455	     18.42574177	     -6.58718294	     49.85548944	     13.93772061	     57.27474281
      1.15000000	     28.66988376	     -4.00480826	     -9.45280526	      0.79699147	      1.05777634	     -0.41598671	    -29.16566949	     -0.08714661	    -10.63628247	      0.00000000	    -17.59658481	    -35.00000000	      0.00000000	    -30.00000025	      4.06770895	     14.28344507	      0.00000000	    -17.46917437	    -35.00000000	      0.00000000	    -55.86779603	     -2.87774994	      2.60421831	     15.19331479	     -5.82402537	     39.34349659	     14.56759418	     62.25908777	     18.41270935	     -6.58710953	     49.85423765	     13.93435966	     57.27371819
      1.16666670	     28.68659700	     -3.95656089	     -9.31549065	      0.79561221	      1.05697034	     -0.41659973	    -29.21409095	     -0.10967976	    -10.64473905	      0.00000000	    -17.64196590	    -35.00000000	      0.00000000	    -30.00000025	      4.09567413	     14.24409288	      0.00000000	    -17.49431825	    -35.00000000	      0.00000000	    -55.85718777	     -2.91971721	      2.64731918	     15.21850723	     -5.82173188	     39.35055208	     14.57130845	     62.26570710	     18.34426747	     -6.55424379	     49.84785753	     13.92238248	     57.26772502
      1.18333330	     28.69047104	     -3.97369193	     -9.28937844	      0.79463661	      1.05587081	     -0.41642115	    -29.20936701	     -0.11652110	    -10.64886882	      0.00000000	    -17.64941144	    -35.00000000	      0.00000000	    -30.00000025	      4.11552749	     14.23689872	      0.00000000	    -17.49634888	    -35.00000000	      0.00000000	    -55.85316998	     -2.92332583	      2.64456844	     15.21539097	     -5.82239703	     39.35192011	     14.57068190	     62.26689345	     18.34145415	     -6.54597904	     49.84648040	     13.92206149	     57.26669797
      1.20000000	     28.72257570	     -3.92621119	     -9.15015505	      0.79477859	      1.05630377	     -0.41628593	    -29.23320371	     -0.11490660	    -10.68276607	      0.00000000	    -17.72694372	    -35.00000000	      0.00000000	    -30.00000025	      4.12951342	     14.17374409	      0.00000000	    -17.52544740	    -35.00000000	      0.00000000	    -55.81590229	     -2.93342016	      2.58801531	     15.20179195	     -5.83436553	     39.36128719	     14.56965037	     62.27742017	     18.35124194	     -6.43223453	     49.83606835	     13.93222585	     57.25848752
      1.21666670	     28.73886984	     -3.93932255	     -9.14080119	      0.79510918	      1.05562536	     -0.41571165	    -29.21787768	     -0.11466078	    -10.68400064	      0.00000000	    -17.72906960	    -35.00000000	      0.00000000	    -30.00000025	      4.14035005	     14.17341462	      0.00000000	    -17.52635998	    -35.00000000	      0.00000000	    -55.81524287	     -2.93169372	      2.58515400	     15.20004668	     -5.83447735	     39.36160333	     14.56952476	     62.27776312	     18.35292953	     -6.42942414	     49.83564308	     13.93236607	     57.25822484
      1.23333330	     28.73103916	     -3.95971554	     -9.08995530	      0.79535651	      1.05412605	     -0.41529973	    -29.19887521	     -0.08405989	    -10.69997340	      0.00000000	    -17.77070493	    -35.00000000	      0.00000000	    -30.00000025	      4.11286418	     14.15907456	      0.00000000	    -17.52702366	    -35.00000000	      0.00000000	    -55.77387287	     -2.90490913	      2.48172059	     15.12538582	     -5.81827000	     39.36982555	     14.56862044	     62.28603630	     18.40892515	     -6.34311379	     49.82771929	     13.94562967	     57.25315361
      1.25000000	     28.73239808	     -3.96624467	     -9.08590513	      0.79511730	      1.05203567	     -0.41494969	    -29.19940894	     -0.08647547	    -10.70028637	      0.00000000	    -17.77136648	    -35.00000000	      0.00000000	    -30.00000025	      4.11416656	     14.15929822	      0.00000000	    -17.52634669	    -35.00000000	      0.00000000	    -55.77395163	     -2.90390143	      2.47999386	     15.12386236	     -5.81785177	     39.36995194	     14.56866733	     62.28619683	     18.40931625	     -6.34198098	     49.82760262	     13.94553909	     57.25306044
      1.26666670	     28.73906380	     -4.03763010	     -8.96476559	      0.79550101	      1.05292537	     -0.41555060	    -29.23101382	      0.04493786	    -10.67455470	      0.00000000	    -17.90157799	    -35.00000000	      0.00000000	    -30.00000025	      3.97268471	     14.23412861	      0.00000000	    -17.32896303	    -35.00000000	      0.00000000	    -55.64248515	     -2.74763196	      2.26543393	     14.96349779	     -5.64874340	     39.38250667	     14.64513597	     62.31939034	     18.40371237	     -6.27770820	     49.80702559	     13.86813679	     57.23535362
      1.28333330	     28.74303393	     -4.05866873	     -8.98658669	      0.79642083	      1.05401514	     -0.41610373	    -29.25919476	      0.04541066	    -10.67904648	      0.00000000	    -17.90528024	    -35.00000000	      0.00000000	    -30.00000025	      3.97237433	     14.24111039	      0.00000000	    -17.32717564	    -35.00000000	      0.00000000	    -55.64061209	     -2.74823661	      2.25469390	     14.96183197	     -5.65052455	     39.38173913	     14.64565520	     62.32009344	     18.40828725	     -6.27692639	     49.80646550	     13.86667181	     57.23495347
      1.30000000	     28.72121167	     -4.14733312	     -9.12002699	      0.79696846	      1.05530256	     -0.41673984	    -29.24616204	      0.06261902	    -10.71031864	      0.00000000	    -17.94621830	    -35.00000000	      0.00000000	    -30.00000025	      3.95040456	     14.26693985	      0.00000000	    -17.30487659	    -35.00000000	      0.00000000	    -55.62317991	     -2.73684915	      2.15306574	     14.94848193	     -5.64995459	     39.37586271	     14.65415201	     62.32455685	     18.46648211	     -6.23509685	     49.80536660	     13.87180311	     57.23368124
      1.31666670	     28.69793161	     -4.29414765	     -9.19001310	      0.79686678	      1.05579244	     -0.41730160	    -29.25962374	      0.17638255	    -10.82754691	      0.00000000	    -18.40073001	    -35.00000000	      0.00000000	    -30.00000025	      3.85203288	     14.19776385	      0.00000000	    -16.91328177	    -35.00000000	      0.00000000	    -55.78282238	     -2.48325511	      1.81314591	     15.25547077	     -5.61803907	     39.28606223	     14.84071271	     62.38253196	     18.46352316	     -6.14748181	     49.81998521	     13.70679322	     57.22031366
      1.33333330	     28.64825603	     -4.33541482	     -9.29802115	      0.79814122	      1.05849857	     -0.41774649	    -29.26631381	      0.17827315	    -10.85563917	      0.00000000	    -18.41574054	    -35.00000000	      0.00000000	    -30.00000025	      3.84736755	     14.21989089	      0.00000000	    -16.91635948	    -35.00000000	      0.00000000	    -55.74005137	     -2.46187483	      1.74861747	     15.26725481	     -5.60515642	     39.28029333	     14.85378231	     62.38909297	     18.55785611	     -6.10361206	     49.81833507	     13.72512881	     57.21934455
      1.35000000	     28.62129745	     -4.32161193	     -9.32141662	      0.79951194	      1.05456724	     -0.41472003	    -29.28795135	      0.19832964	    -10.86145247	      0.00000000	    -18.41630803	    -35.00000000	      0.00000000	    -30.00000025	      3.84473483	     14.22407141	      0.00000000	    -16.91201478	    -35.00000000	      0.00000000	    -55.73895692	     -2.45463282	      1.74011035	     15.27476028	     -5.60587016	     39.27918341	     14.85593541	     62.38994409	     18.57365603	     -6.09317852	     49.81827523	     13.72916993	     57.21933464
